<?xml version="1.0" encoding="UTF-8" standalone="no"?>
<!-- Created with Inkscape (http://www.inkscape.org/) -->

<svg
   width="9.260417mm"
   height="9.2604179mm"
   viewBox="0 0 9.2604169 9.2604179"
   version="1.1"
   id="svg1692"
   inkscape:version="1.1.2 (0a00cf5339, 2022-02-04)"
   sodipodi:docname="avatar.svg"
   xmlns:inkscape="http://www.inkscape.org/namespaces/inkscape"
   xmlns:sodipodi="http://sodipodi.sourceforge.net/DTD/sodipodi-0.dtd"
   xmlns="http://www.w3.org/2000/svg"
   xmlns:svg="http://www.w3.org/2000/svg"
   xmlns:rdf="http://www.w3.org/1999/02/22-rdf-syntax-ns#"
   xmlns:cc="http://creativecommons.org/ns#"
   xmlns:dc="http://purl.org/dc/elements/1.1/">
  <defs
     id="defs1686">
    <clipPath
       clipPathUnits="userSpaceOnUse"
       id="clipPath162">
      <path
         d="m 7895.33,6562.29 c 0,469.44 -380.56,850 -850.01,850 -469.44,0 -849.99,-380.56 -849.99,-850 0,-469.45 380.55,-850.01 849.99,-850.01 469.45,0 850.01,380.56 850.01,850.01 z"
         id="path160"
         inkscape:connector-curvature="0" />
    </clipPath>
    <clipPath
       clipPathUnits="userSpaceOnUse"
       id="clipPath2340">
      <path
         inkscape:connector-curvature="0"
         id="path2342"
         style="fill:#1e317e;fill-opacity:0.845;fill-rule:nonzero;stroke:none;stroke-width:0.0352778"
         d="m 104.06909,131.44643 c 0,-16.5608 -13.424954,-29.98576 -29.985399,-29.98576 -16.56115,0 -29.986111,13.42496 -29.986111,29.98576 0,16.5608 13.424961,29.98576 29.986111,29.98576 16.560445,0 29.985399,-13.42496 29.985399,-29.98576" />
    </clipPath>
  </defs>
  <sodipodi:namedview
     id="base"
     pagecolor="#ffffff"
     bordercolor="#666666"
     borderopacity="1.0"
     inkscape:pageopacity="0.0"
     inkscape:pageshadow="2"
     inkscape:zoom="0.98994949"
     inkscape:cx="288.39855"
     inkscape:cy="155.05842"
     inkscape:document-units="mm"
     inkscape:current-layer="layer1"
     showgrid="false"
     inkscape:window-width="1920"
     inkscape:window-height="970"
     inkscape:window-x="0"
     inkscape:window-y="27"
     inkscape:window-maximized="1"
     inkscape:pagecheckerboard="0" />
  <metadata
     id="metadata1689">
    <rdf:RDF>
      <cc:Work
         rdf:about="">
        <dc:format>image/svg+xml</dc:format>
        <dc:type
           rdf:resource="http://purl.org/dc/dcmitype/StillImage" />
      </cc:Work>
    </rdf:RDF>
  </metadata>
  <g
     inkscape:label="Layer 1"
     inkscape:groupmode="layer"
     id="layer1"
     transform="translate(-44.09758,-126.43219)">
    <g
       id="g2338"
       clip-path="url(#clipPath2340)"
       transform="matrix(0.1544136,0,0,0.1544136,37.288314,110.76528)"
       inkscape:export-filename="/home/lenovo/Documents/PROJECT/NODEJS/SATU_APPS/public/img/avatar.png"
       inkscape:export-xdpi="96.000008"
       inkscape:export-ydpi="96.000008">
      <path
         inkscape:connector-curvature="0"
         id="path1656"
         style="fill:#1e317e;fill-opacity:0.845;fill-rule:nonzero;stroke:none;stroke-width:0.0352778"
         d="m 104.06909,131.44643 c 0,-16.5608 -13.424956,-29.98576 -29.985404,-29.98576 -16.561152,0 -29.98611,13.42496 -29.98611,29.98576 0,16.5608 13.424958,29.98576 29.98611,29.98576 16.560448,0 29.985404,-13.42496 29.985404,-29.98576" />
      <path
         inkscape:connector-curvature="0"
         id="path1658"
         style="fill:#142154;fill-opacity:0.73;fill-rule:nonzero;stroke:none;stroke-width:0.0352778"
         d="m 104.06909,131.44643 c 0,-16.5608 -13.424956,-29.98576 -29.985404,-29.98576 v 59.97152 c 16.560448,0 29.985404,-13.42496 29.985404,-29.98576" />
      <path
         inkscape:connector-curvature="0"
         id="path1660"
         style="fill:#d89e81;fill-opacity:1;fill-rule:nonzero;stroke:none;stroke-width:0.0352778"
         d="m 78.474737,148.63762 h -8.781698 v -9.62907 h 8.781698 v 9.62907" />
      <path
         inkscape:connector-curvature="0"
         id="path1662"
         style="fill:#c3d8e1;fill-opacity:1;fill-rule:nonzero;stroke:none;stroke-width:0.0352778"
         d="m 79.53942,144.74648 c 0,0 8.349545,1.22061 9.582504,2.50472 1.073855,1.11866 3.306233,11.83005 3.822347,14.18096 -14.658623,0 -18.860912,0 -18.860912,0 V 145.2005 l 5.456061,-0.45402" />
      <path
         inkscape:connector-curvature="0"
         id="path1664"
         style="fill:#e9b89d;fill-opacity:1;fill-rule:nonzero;stroke:none;stroke-width:0.0352778"
         d="m 74.083712,111.45519 c 4.263672,0 11.006314,2.42429 11.006314,13.78232 0,6.55779 -2.137833,10.85357 -3.069519,12.04243 -0.856898,1.09325 -5.676195,3.42335 -7.936795,3.42335 0,-11.47868 0,-29.2481 0,-29.2481" />
      <path
         inkscape:connector-curvature="0"
         id="path1666"
         style="fill:#e9b89d;fill-opacity:1;fill-rule:nonzero;stroke:none;stroke-width:0.0352778"
         d="m 87.210926,127.94544 c 0.188031,-1.81469 -0.676627,-3.42512 -1.930752,-3.59763 -1.254831,-0.17181 -2.423937,1.15993 -2.61232,2.97497 -0.188383,1.81434 0.676628,3.42442 1.931811,3.59657 1.253773,0.17181 2.423231,-1.15993 2.611261,-2.97391" />
      <path
         inkscape:connector-curvature="0"
         id="path1668"
         style="fill:#f3d4b3;fill-opacity:1;fill-rule:nonzero;stroke:none;stroke-width:0.0352778"
         d="m 74.083712,111.45519 c -4.263673,0 -11.006315,2.42429 -11.006315,13.78232 0,6.55779 2.137834,10.85357 3.069167,12.04243 0.857603,1.09325 5.676195,3.42335 7.937148,3.42335 0,-11.47868 0,-29.2481 0,-29.2481" />
      <path
         inkscape:connector-curvature="0"
         id="path1670"
         style="fill:#f3d4b3;fill-opacity:1;fill-rule:nonzero;stroke:none;stroke-width:0.0352778"
         d="m 60.956144,127.94544 c -0.187678,-1.81469 0.676981,-3.42512 1.931106,-3.59763 1.254831,-0.17181 2.423936,1.15993 2.611967,2.97497 0.188383,1.81434 -0.676628,3.42442 -1.931106,3.59657 -1.254478,0.17181 -2.423936,-1.15993 -2.611967,-2.97391" />
      <path
         inkscape:connector-curvature="0"
         id="path1672"
         style="fill:#d3e5ee;fill-opacity:1;fill-rule:nonzero;stroke:none;stroke-width:0.0352778"
         d="m 68.627298,144.74648 c 0,0 -8.349545,1.22061 -9.582151,2.50472 -1.074208,1.11866 -3.305881,11.83005 -3.8227,14.18096 14.658976,0 18.860912,0 18.860912,0 V 145.2005 l -5.456061,-0.45402" />
      <path
         inkscape:connector-curvature="0"
         id="path1674"
         style="fill:#ffffff;fill-opacity:1;fill-rule:nonzero;stroke:none;stroke-width:0.0352778"
         d="m 74.083359,145.2005 -4.4577,-1.79281 -1.09855,1.11513 2.218266,4.91913 3.337984,-4.24145" />
      <path
         inkscape:connector-curvature="0"
         id="path1676"
         style="fill:#ffffff;fill-opacity:1;fill-rule:nonzero;stroke:none;stroke-width:0.0352778"
         d="m 74.083359,145.2005 4.458406,-1.79281 1.098197,1.11513 -2.218619,4.91913 -3.337984,-4.24145" />
      <path
         inkscape:connector-curvature="0"
         id="path1678"
         style="fill:#1a1a1a;fill-opacity:1;fill-rule:nonzero;stroke:none;stroke-width:0.0352778"
         d="m 85.329562,124.61698 c 0,0 3.608565,-16.45038 -11.321697,-16.45038 -15.008226,0 -11.240912,15.99706 -11.240912,15.99706 0,0 2.05105,-1.1744 2.05105,4.07599 0.811389,0 0.376414,0 0.376414,0 0,0 0.727075,-3.52037 0.947561,-6.67632 5.277909,0 9.94657,-0.67627 13.87087,-3.9243 2.22885,0 2.532239,2.77566 2.532239,4.89938 l -0.976136,0.37818 c 0,0 0.945092,1.84961 1.012472,5.32306 0.676628,0 0.676628,0 0.676628,0 0,0 -0.09984,-5.7919 2.071511,-3.62267" />
      <path
         inkscape:connector-curvature="0"
         id="path1680"
         style="fill:#ffffff;fill-opacity:1;fill-rule:nonzero;stroke:none;stroke-width:0.0352778"
         d="m 74.083712,136.41845 c 1.987197,0 3.598333,-0.65652 3.598333,-1.46614 h -7.196314 c 0,0.80962 1.610783,1.46614 3.597981,1.46614" />
    </g>
  </g>
</svg>
